<svg width="19" height="17" viewBox="0 0 19 17" fill="none" xmlns="http://www.w3.org/2000/svg">
<path d="M13.5312 0.8125H13.5322C14.112 0.812706 14.6861 0.928071 15.2207 1.15234C15.7555 1.37666 16.24 1.70554 16.6465 2.11914C17.4754 2.96296 17.9395 4.09841 17.9395 5.28125C17.9395 6.46409 17.4754 7.59954 16.6465 8.44336L9.5 15.6797L2.35449 8.44336C1.52574 7.59956 1.06152 6.46398 1.06152 5.28125C1.06152 4.09852 1.52574 2.96294 2.35449 2.11914C2.76107 1.70576 3.2465 1.37743 3.78125 1.15332C4.31591 0.929302 4.89003 0.813477 5.46973 0.813477C6.04945 0.813511 6.62353 0.929248 7.1582 1.15332C7.69287 1.37741 8.17746 1.70584 8.58398 2.11914L8.58496 2.12012L9.27832 2.82031L9.50098 3.04395L9.72266 2.82031L10.416 2.12012L10.418 2.11914C10.824 1.70511 11.308 1.37568 11.8428 1.15137C12.3774 0.927112 12.9515 0.812068 13.5312 0.8125ZM13.5322 1.4375C13.0331 1.43681 12.5387 1.53682 12.0791 1.73145C11.6203 1.9258 11.2049 2.21022 10.8584 2.56836L9.50098 3.95215L8.13672 2.55664L8.13574 2.55566C7.78793 2.20158 7.37273 1.92054 6.91504 1.72852C6.45732 1.53652 5.96608 1.43753 5.46973 1.4375C4.97319 1.4375 4.48131 1.53642 4.02344 1.72852C3.56571 1.92058 3.15055 2.20151 2.80273 2.55566C2.08873 3.2806 1.68848 4.25787 1.68848 5.27539C1.68858 6.29272 2.08888 7.26931 2.80273 7.99414H2.80371L9.27832 14.5508L9.50098 14.7764L9.72266 14.5508L16.1982 7.99414C16.9122 7.26928 17.3124 6.29283 17.3125 5.27539C17.3125 4.2578 16.9123 3.28062 16.1982 2.55566C15.8507 2.20141 15.4362 1.91953 14.9785 1.72754C14.5207 1.53551 14.0287 1.43715 13.5322 1.4375Z" fill="#BDBDBD" stroke="#252B42" stroke-width="0.625"/>
</svg>
